<?xml version="1.0" encoding="UTF-8"?>
<svg xmlns="http://www.w3.org/2000/svg" xmlns:xlink="http://www.w3.org/1999/xlink" version="1.1" id="Capa_1" x="0px" y="0px" viewBox="0 0 512 512" style="enable-background:new 0 0 512 512;" xml:space="preserve" width="512" height="512">
<g>
	<path style="fill:#BEDAFF;" d="M211.234,150.348H66.681c-21.558,0-39.031,17.482-39.031,39.031v158.908&#10;&#9;&#9;c0,18.151,14.714,32.865,32.865,32.865h128.821c13.957-22.098,38.592-36.78,66.663-36.78s52.706,14.682,66.663,36.78h128.821&#10;&#9;&#9;c18.151,0,32.865-14.714,32.865-32.865V189.379c0-21.548-17.472-39.031-39.031-39.031h-146.21H211.234z"/>
	<path style="fill:none;stroke:#000000;stroke-width:20;stroke-linecap:round;stroke-linejoin:round;stroke-miterlimit:10;" d="&#10;&#9;&#9;M211.234,150.348H66.681c-21.558,0-39.031,17.482-39.031,39.031v158.908c0,18.151,14.714,32.865,32.865,32.865h128.821&#10;&#9;&#9;c13.957-22.098,38.592-36.78,66.663-36.78s52.706,14.682,66.663,36.78h128.821c18.151,0,32.865-14.714,32.865-32.865V189.379&#10;&#9;&#9;c0-21.548-17.472-39.031-39.031-39.031h-146.21"/>
	<circle style="fill:#FF7E96;" cx="256" cy="423.189" r="78.811"/>
	
		<circle style="fill:none;stroke:#000000;stroke-width:20;stroke-linecap:round;stroke-linejoin:round;stroke-miterlimit:10;" cx="256" cy="423.189" r="78.811"/>
	<g>
		<circle style="fill:#7BA8BD;" cx="256.469" cy="37.372" r="27.372"/>
		
			<circle style="fill:none;stroke:#000000;stroke-width:20;stroke-linecap:round;stroke-linejoin:round;stroke-miterlimit:10;" cx="256.469" cy="37.372" r="27.372"/>
		
			<line style="fill:none;stroke:#000000;stroke-width:20;stroke-linecap:round;stroke-linejoin:round;stroke-miterlimit:10;" x1="45.954" y1="156.303" x2="229.898" y2="30.768"/>
		
			<line style="fill:none;stroke:#000000;stroke-width:20;stroke-linecap:round;stroke-linejoin:round;stroke-miterlimit:10;" x1="466.664" y1="156.698" x2="282.745" y2="29.68"/>
	</g>
	
		<polyline style="fill:none;stroke:#000000;stroke-width:20;stroke-linecap:round;stroke-linejoin:round;stroke-miterlimit:10;" points="&#10;&#9;&#9;256,386.677 256,426.551 239.599,442.951 &#9;"/>
	<g>
		
			<line style="fill:none;stroke:#000000;stroke-width:20;stroke-linecap:round;stroke-linejoin:round;stroke-miterlimit:10;" x1="325.591" y1="216.142" x2="289.745" y2="306.269"/>
	</g>
	<g>
		
			<polyline style="fill:none;stroke:#000000;stroke-width:20;stroke-linecap:round;stroke-linejoin:round;stroke-miterlimit:10;" points="&#10;&#9;&#9;&#9;375.898,216.142 431.502,216.142 387.071,317.215 &#9;&#9;"/>
	</g>
	<g>
		<path style="fill:none;stroke:#000000;stroke-width:20;stroke-linecap:round;stroke-linejoin:round;stroke-miterlimit:10;" d="&#10;&#9;&#9;&#9;M235.084,287.384h-63.47c0,0,33.605-60.913,39.151-67.717c5.607-6.88,10.918-2.589,11.424,3.48&#10;&#9;&#9;&#9;c0.506,6.069-0.253,94.068-0.253,94.068"/>
	</g>
	<g>
		<path style="fill:none;stroke:#000000;stroke-width:20;stroke-linecap:round;stroke-linejoin:round;stroke-miterlimit:10;" d="&#10;&#9;&#9;&#9;M144.241,317.971c0,0-49.176,0.618-51.505-0.159c-2.329-0.776,3.735-4.878,35.976-50.945c6.021-8.603,9.336-15.861,10.746-21.942&#10;&#9;&#9;&#9;l0.5-3.91c0-14.284-11.579-25.863-25.863-25.863c-12.569,0-23.043,8.965-25.377,20.85"/>
	</g>
	
		<line style="fill:none;stroke:#000000;stroke-width:20;stroke-linecap:round;stroke-linejoin:round;stroke-miterlimit:10;" x1="256" y1="150.348" x2="256" y2="150.348"/>
</g>















</svg>
