<svg width="20" height="20" viewBox="0 0 20 20" fill="none" xmlns="http://www.w3.org/2000/svg">
<g clip-path="url(#clip0_246_518)">
<path d="M11.3392 1.21098C11.1651 1.03191 10.9569 0.889566 10.7269 0.792364C10.4969 0.695163 10.2497 0.645081 10 0.645081C9.75033 0.645081 9.50316 0.695163 9.27314 0.792364C9.04313 0.889566 8.83495 1.03191 8.66091 1.21098L0.794664 9.57148C0.681019 9.69225 0.620005 9.85323 0.625045 10.019C0.630085 10.1847 0.700766 10.3417 0.821539 10.4554C0.942312 10.569 1.10328 10.63 1.26904 10.625C1.4348 10.6199 1.59177 10.5493 1.70541 10.4285L1.87504 10.2481V17.5C1.8756 17.9971 2.07333 18.4737 2.42483 18.8252C2.77634 19.1767 3.25293 19.3744 3.75004 19.375H16.25C16.7471 19.3744 17.2237 19.1767 17.5752 18.8252C17.9268 18.4737 18.1245 17.9971 18.125 17.5V10.2481L18.2947 10.4285C18.4083 10.5493 18.5653 10.6199 18.731 10.625C18.8968 10.63 19.0578 10.569 19.1785 10.4554C19.2993 10.3417 19.37 10.1847 19.375 10.019C19.3801 9.85323 19.3191 9.69225 19.2054 9.57148L11.3392 1.21098ZM16.875 17.5C16.8747 17.6656 16.8088 17.8244 16.6916 17.9416C16.5745 18.0587 16.4157 18.1246 16.25 18.125H3.75004C3.58438 18.1246 3.4256 18.0587 3.30846 17.9416C3.19132 17.8244 3.12537 17.6656 3.12504 17.5V8.91961L9.57154 2.06786C9.62629 2.00895 9.6926 1.96196 9.76633 1.92983C9.84006 1.8977 9.91961 1.88112 10 1.88112C10.0805 1.88112 10.16 1.8977 10.2338 1.92983C10.3075 1.96196 10.3738 2.00895 10.4285 2.06786L16.875 8.91961V17.5Z" fill="#E8820A"/>
<path d="M13.75 14.375H6.25C6.08424 14.375 5.92527 14.4408 5.80806 14.5581C5.69085 14.6753 5.625 14.8342 5.625 15C5.625 15.1658 5.69085 15.3247 5.80806 15.4419C5.92527 15.5592 6.08424 15.625 6.25 15.625H13.75C13.9158 15.625 14.0747 15.5592 14.1919 15.4419C14.3092 15.3247 14.375 15.1658 14.375 15C14.375 14.8342 14.3092 14.6753 14.1919 14.5581C14.0747 14.4408 13.9158 14.375 13.75 14.375Z" fill="#E8820A"/>
<path d="M5.625 11.25C5.625 11.4158 5.69085 11.5747 5.80806 11.6919C5.92527 11.8092 6.08424 11.875 6.25 11.875H13.75C13.9158 11.875 14.0747 11.8092 14.1919 11.6919C14.3092 11.5747 14.375 11.4158 14.375 11.25C14.375 11.0842 14.3092 10.9253 14.1919 10.8081C14.0747 10.6908 13.9158 10.625 13.75 10.625H6.25C6.08424 10.625 5.92527 10.6908 5.80806 10.8081C5.69085 10.9253 5.625 11.0842 5.625 11.25Z" fill="#E8820A"/>
</g>
<defs>
<clipPath id="clip0_246_518">
<rect width="20" height="20" fill="white"/>
</clipPath>
</defs>
</svg>
