<svg width="24" height="24" viewBox="0 0 24 24" fill="none" xmlns="http://www.w3.org/2000/svg">
<rect x="0.5" y="0.5" width="23" height="23" rx="4.5" stroke="#B2B1B1"/>
<path d="M20.25 3.75H3.75C3.15326 3.75 2.58097 3.98705 2.15901 4.40901C1.73705 4.83097 1.5 5.40326 1.5 6V12C1.5 12.5967 1.73705 13.169 2.15901 13.591C2.58097 14.0129 3.15326 14.25 3.75 14.25H11.25V18.8873C11.2501 19.0799 11.2996 19.2692 11.3938 19.4372C11.488 19.6052 11.6238 19.7462 11.7881 19.8466C11.9524 19.9471 12.1397 20.0037 12.3322 20.0111C12.5247 20.0184 12.7158 19.9762 12.8873 19.8885L13.728 19.4535L14.574 21.1297C14.6678 21.316 14.8114 21.4726 14.9888 21.5822C15.1662 21.6918 15.3705 21.7502 15.579 21.7507C15.7546 21.75 15.9277 21.7084 16.0845 21.6292L18.0922 20.6168C18.3588 20.4827 18.5611 20.2482 18.6548 19.9649C18.7485 19.6817 18.7258 19.3728 18.5917 19.1063L17.748 17.4307L18.5452 17.0295C18.7176 16.9427 18.8648 16.813 18.9726 16.6528C19.0803 16.4927 19.1451 16.3075 19.1606 16.1152C19.1761 15.9228 19.1419 15.7296 19.0612 15.5543C18.9805 15.3789 18.856 15.2273 18.6998 15.114L17.49 14.25H20.25C20.8467 14.25 21.419 14.0129 21.841 13.591C22.2629 13.169 22.5 12.5967 22.5 12V6C22.5 5.40326 22.2629 4.83097 21.841 4.40901C21.419 3.98705 20.8467 3.75 20.25 3.75ZM16.4093 18.1073L17.0842 19.446L15.7455 20.121L15.0705 18.7778C14.9825 18.6012 14.8601 18.4439 14.7106 18.3151C14.5611 18.1863 14.3874 18.0886 14.1998 18.0278C14.0125 17.9658 13.8147 17.9419 13.6181 17.9573C13.4214 17.9728 13.2298 18.0273 13.0545 18.1178L12.7545 18.2715V12.7065L17.3205 15.969L17.0767 16.092C16.9005 16.1804 16.7434 16.3026 16.6144 16.4518C16.4855 16.6009 16.3872 16.7741 16.3252 16.9612C16.2632 17.1484 16.2387 17.346 16.2531 17.5426C16.2676 17.7393 16.3206 17.9311 16.4093 18.1073ZM21 12C21 12.1989 20.921 12.3897 20.7803 12.5303C20.6397 12.671 20.4489 12.75 20.25 12.75H15.39L13.029 11.0633C13.0132 11.052 12.9945 11.0468 12.978 11.0363C13.1304 10.9668 13.2707 10.8734 13.3935 10.7595C13.5705 10.5691 13.7065 10.3444 13.7931 10.0993C13.8797 9.85413 13.915 9.59383 13.8967 9.3345V7.3185C13.9004 7.24323 13.8883 7.16802 13.8613 7.09765C13.8343 7.02729 13.793 6.9633 13.74 6.90975C13.6849 6.85847 13.6201 6.81877 13.5493 6.793C13.4786 6.76724 13.4034 6.75593 13.3282 6.75975C13.253 6.75416 13.1775 6.76485 13.1067 6.7911C13.036 6.81734 12.9718 6.85852 12.9184 6.91183C12.865 6.96514 12.8237 7.02933 12.7974 7.10002C12.7711 7.17072 12.7603 7.24626 12.7657 7.3215V9.384C12.7826 9.64518 12.7072 9.90399 12.5527 10.1153C12.4728 10.1965 12.3774 10.2609 12.2723 10.305C12.1672 10.349 12.0543 10.3716 11.9404 10.3716C11.8264 10.3716 11.7136 10.349 11.6084 10.305C11.5033 10.2609 11.408 10.1965 11.328 10.1153C11.1738 9.90389 11.0987 9.64509 11.1158 9.384V7.3185C11.1197 7.24219 11.1081 7.16587 11.0816 7.0942C11.0551 7.02252 11.0143 6.95698 10.9617 6.90157C10.9091 6.84617 10.8457 6.80204 10.7755 6.77189C10.7053 6.74174 10.6297 6.72619 10.5533 6.72619C10.4768 6.72619 10.4012 6.74174 10.331 6.77189C10.2608 6.80204 10.1974 6.84617 10.1448 6.90157C10.0922 6.95698 10.0514 7.02252 10.0249 7.0942C9.99844 7.16587 9.98681 7.24219 9.99075 7.3185V9.3375C9.97249 9.59628 10.0071 9.85608 10.0925 10.1011C10.1778 10.346 10.3121 10.5711 10.4872 10.7625C10.7808 11.0304 11.1553 11.1927 11.5515 11.2238C11.3601 11.4289 11.253 11.6985 11.2515 11.979V12.75H3.75C3.55109 12.75 3.36032 12.671 3.21967 12.5303C3.07902 12.3897 3 12.1989 3 12V6C3 5.80109 3.07902 5.61032 3.21967 5.46967C3.36032 5.32902 3.55109 5.25 3.75 5.25H20.25C20.4489 5.25 20.6397 5.32902 20.7803 5.46967C20.921 5.61032 21 5.80109 21 6V12Z" fill="#B2B1B1"/>
<path d="M8.62874 8.90625C8.83234 8.83685 9.00928 8.70578 9.13499 8.53125C9.25652 8.35508 9.31974 8.14523 9.31574 7.93125C9.32072 7.76927 9.28602 7.60852 9.21464 7.46303C9.14327 7.31753 9.03739 7.1917 8.90624 7.0965C8.5825 6.87554 8.19517 6.76698 7.80374 6.7875H6.20324C6.13154 6.77937 6.05892 6.78752 5.9908 6.81133C5.92268 6.83514 5.86081 6.87401 5.80978 6.92504C5.75875 6.97606 5.71989 7.03794 5.69607 7.10606C5.67226 7.17418 5.66412 7.2468 5.67224 7.3185V10.6627C5.66412 10.7345 5.67226 10.8071 5.69607 10.8752C5.71989 10.9433 5.75875 11.0052 5.80978 11.0562C5.86081 11.1072 5.92268 11.1461 5.9908 11.1699C6.05892 11.1937 6.13154 11.2019 6.20324 11.1937H7.86599C8.14826 11.1994 8.42879 11.1484 8.69099 11.0437C8.90848 10.9575 9.09704 10.8114 9.23474 10.6222C9.36343 10.4358 9.43009 10.2135 9.42524 9.987C9.43782 9.74213 9.36497 9.50049 9.21915 9.30337C9.07332 9.10625 8.86358 8.96588 8.62574 8.90625H8.62874ZM6.79124 7.656H7.60949C7.77504 7.64369 7.94051 7.68076 8.08499 7.7625C8.1363 7.80166 8.17692 7.8531 8.20314 7.91207C8.22935 7.97105 8.2403 8.03568 8.23499 8.1C8.23976 8.16157 8.22845 8.22333 8.20215 8.27921C8.17585 8.33509 8.13548 8.38318 8.08499 8.41875C7.93903 8.49605 7.77422 8.53062 7.60949 8.5185H6.79124V7.656ZM8.21624 10.2157C8.06735 10.3011 7.89599 10.339 7.72499 10.3245H6.79124V9.38775H7.72499C7.89607 9.37342 8.06745 9.41162 8.21624 9.49725C8.30997 9.59334 8.36244 9.72226 8.36244 9.8565C8.36244 9.99074 8.30997 10.1197 8.21624 10.2157ZM17.79 6.75C17.7165 6.75071 17.6441 6.76793 17.5781 6.80038C17.5122 6.83284 17.4544 6.8797 17.409 6.9375L16.3035 8.25L15.1972 6.9375C15.1517 6.87964 15.0938 6.83275 15.0277 6.8003C14.9616 6.76784 14.8891 6.75065 14.8155 6.75C14.6767 6.75118 14.544 6.80727 14.4465 6.906C14.3957 6.95185 14.355 7.00784 14.3271 7.07035C14.2992 7.13287 14.2847 7.20054 14.2845 7.269C14.2868 7.39933 14.3379 7.52405 14.4277 7.6185L15.7282 9.13725V10.6627C15.723 10.7406 15.7348 10.8187 15.7629 10.8915C15.791 10.9643 15.8347 11.0301 15.891 11.0842C16.0061 11.186 16.1559 11.2397 16.3095 11.2342C16.4603 11.2393 16.6071 11.1855 16.719 11.0842C16.774 11.0293 16.8166 10.9633 16.844 10.8907C16.8714 10.818 16.883 10.7403 16.878 10.6627V9.13725L18.1905 7.6185C18.2764 7.52444 18.3252 7.40236 18.3277 7.275C18.3272 7.20591 18.3122 7.13769 18.2836 7.07478C18.2551 7.01186 18.2136 6.95564 18.162 6.90975C18.1136 6.85983 18.0559 6.82 17.992 6.79257C17.9282 6.76515 17.8595 6.75068 17.79 6.75Z" fill="#B2B1B1"/>
</svg>
