<svg width="24" height="24" viewBox="0 0 24 24" fill="none" xmlns="http://www.w3.org/2000/svg">
<g clip-path="url(#clip0_259_426)">
<path d="M6.79856 18.3792L19.6901 17.5735C21.292 17.4734 22.5469 16.1376 22.5469 14.5325V9.23438C22.5469 8.84606 22.2321 8.53125 21.8438 8.53125H7.33102L6.09586 5.23748C5.99297 4.96303 5.73056 4.78125 5.4375 4.78125H2.15625C1.76794 4.78125 1.45312 5.09606 1.45312 5.48438C1.45312 5.87269 1.76794 6.1875 2.15625 6.1875H4.95023L6.14062 9.36188V17.0923C5.31881 17.3834 4.73438 18.1686 4.73438 19.0795C4.73438 20.2418 5.67998 21.1875 6.84234 21.1875H7.19911C7.12106 21.4076 7.07817 21.6442 7.07817 21.8906C7.07817 23.0537 8.02444 24 9.18755 24C10.3507 24 11.2969 23.0537 11.2969 21.8906C11.2969 21.6442 11.254 21.4076 11.176 21.1875H16.5741C16.4961 21.4076 16.4532 21.6442 16.4532 21.8906C16.4532 23.0537 17.3994 24 18.5625 24C19.7257 24 20.6719 23.0537 20.6719 21.8906C20.6719 21.6442 20.629 21.4076 20.551 21.1875H21.8438C22.2321 21.1875 22.5469 20.8727 22.5469 20.4844C22.5469 20.0961 22.2321 19.7812 21.8438 19.7812H6.84234C6.45544 19.7812 6.14062 19.4665 6.14062 19.0795C6.14062 18.7099 6.42966 18.4023 6.79856 18.3792ZM7.54688 9.9375H21.1406V14.5325C21.1406 15.3968 20.4649 16.116 19.6024 16.17L7.54688 16.9234V9.9375ZM18.5625 21.1875C18.9502 21.1875 19.2656 21.5029 19.2656 21.8906C19.2656 22.2783 18.9502 22.5938 18.5625 22.5938C18.1748 22.5938 17.8594 22.2783 17.8594 21.8906C17.8594 21.5029 18.1747 21.1875 18.5625 21.1875ZM9.1875 21.1875C9.5752 21.1875 9.89062 21.5029 9.89062 21.8906C9.89062 22.2783 9.5752 22.5938 9.1875 22.5938C8.7998 22.5938 8.48438 22.2783 8.48438 21.8906C8.48438 21.5029 8.7998 21.1875 9.1875 21.1875Z" fill="#B2B1B1"/>
<path d="M18.8438 11.3438C18.4554 11.3438 18.1406 11.6586 18.1406 12.0469V13.9219C18.1406 14.3102 18.4554 14.625 18.8438 14.625C19.2321 14.625 19.5469 14.3102 19.5469 13.9219V12.0469C19.5469 11.6586 19.2321 11.3438 18.8438 11.3438Z" fill="#B2B1B1"/>
<path d="M15.8438 11.3438C15.4554 11.3438 15.1406 11.6586 15.1406 12.0469V13.9219C15.1406 14.3102 15.4554 14.625 15.8438 14.625C16.2321 14.625 16.5469 14.3102 16.5469 13.9219V12.0469C16.5469 11.6586 16.2321 11.3438 15.8438 11.3438Z" fill="#B2B1B1"/>
<path d="M12.8438 11.3438C12.4554 11.3438 12.1406 11.6586 12.1406 12.0469V13.9219C12.1406 14.3102 12.4554 14.625 12.8438 14.625C13.2321 14.625 13.5469 14.3102 13.5469 13.9219V12.0469C13.5469 11.6586 13.2321 11.3438 12.8438 11.3438Z" fill="#B2B1B1"/>
<path d="M9.84375 11.3438C9.45544 11.3438 9.14062 11.6586 9.14062 12.0469V13.9219C9.14062 14.3102 9.45544 14.625 9.84375 14.625C10.2321 14.625 10.5469 14.3102 10.5469 13.9219V12.0469C10.5469 11.6586 10.2321 11.3438 9.84375 11.3438Z" fill="#B2B1B1"/>
<path d="M13.8383 6.93795C14.1175 7.21713 14.5701 7.21713 14.8493 6.93795L17.4403 4.34688C18.4334 3.35379 18.4334 1.73796 17.4403 0.744867C16.6022 -0.0932575 15.3203 -0.223945 14.3438 0.352664C13.3672 -0.223945 12.0854 -0.0932576 11.2473 0.744914C10.2542 1.73801 10.2542 3.35384 11.2473 4.34693L13.8383 6.93795ZM12.2582 1.75587C12.6938 1.32021 13.4027 1.32021 13.8383 1.75587C14.1175 2.03505 14.5701 2.03501 14.8492 1.75587C15.2849 1.32021 15.9937 1.32021 16.4293 1.75587C16.865 2.19148 16.865 2.90032 16.4293 3.33598L14.3438 5.42154L12.2582 3.33593C11.8226 2.90032 11.8226 2.19148 12.2582 1.75587Z" fill="#B2B1B1"/>
</g>
<defs>
<clipPath id="clip0_259_426">
<rect width="24" height="24" fill="white"/>
</clipPath>
</defs>
</svg>
