<svg width="24" height="24" viewBox="0 0 24 24" fill="none" xmlns="http://www.w3.org/2000/svg">
<g clip-path="url(#clip0_259_507)">
<path d="M11.9824 0.810974C5.82378 0.810974 0.810059 5.82024 0.810059 11.9789C0.810059 18.1375 5.82378 23.1454 11.9824 23.1454C18.1411 23.1454 23.1489 18.1375 23.1489 11.9789C23.1489 5.82024 18.1411 0.810974 11.9824 0.810974ZM11.9824 2.31238C17.3304 2.31238 21.6489 6.6309 21.6489 11.9789C21.6489 17.3269 17.3304 21.6454 11.9824 21.6454C6.63444 21.6454 2.31006 17.3269 2.31006 11.9789C2.31006 6.6309 6.63444 2.31238 11.9824 2.31238ZM8.28368 9.30401L10.9189 11.9714L8.24999 14.6082C7.42595 15.3065 8.59438 16.4879 9.30175 15.6717L11.9707 13.0364L14.606 15.7039C15.3068 16.4436 16.4032 15.3651 15.6753 14.6521L13.04 11.9817L15.7075 9.34796C16.1973 8.8742 15.8526 8.0456 15.1714 8.05892C14.9774 8.06176 14.7925 8.14255 14.6558 8.28003L11.9868 10.9167L9.35156 8.2463C9.21121 8.10031 9.01732 8.00196 8.77661 8.01783C8.09884 8.06262 7.82453 8.85753 8.28368 9.30401Z" fill="#B2B1B1"/>
</g>
<defs>
<clipPath id="clip0_259_507">
<rect width="24" height="24" fill="white"/>
</clipPath>
</defs>
</svg>
