<svg width="20" height="20" viewBox="0 0 20 20" fill="none" xmlns="http://www.w3.org/2000/svg">
<path d="M9.44428 15.9757C9.51593 16.0157 9.59661 16.0366 9.67865 16.0366C9.7607 16.0366 9.84138 16.0157 9.91303 15.9757L14.7366 13.1909C14.8079 13.1498 14.8671 13.0907 14.9082 13.0194C14.9494 12.9482 14.971 12.8673 14.971 12.7851V7.215C14.9697 7.13299 14.9475 7.05267 14.9065 6.98164C14.8655 6.91061 14.807 6.85123 14.7366 6.80912L9.91303 4.02437C9.84175 3.9833 9.76092 3.96168 9.67865 3.96168C9.59639 3.96168 9.51556 3.9833 9.44428 4.02437L4.6205 6.80912C4.55015 6.85127 4.4917 6.91066 4.45069 6.98168C4.40968 7.0527 4.38746 7.133 4.38612 7.215V12.7851C4.38614 12.8673 4.4078 12.9481 4.44894 13.0194C4.49008 13.0906 4.54925 13.1498 4.6205 13.1909L9.44428 15.9757ZM14.0335 12.5144L10.1474 14.7578V10.2706L12.4577 8.93669L12.4603 8.93519L14.0335 8.02684V12.5144ZM9.67865 4.97165L13.5647 7.21506L12.2279 7.98694L8.34197 5.74319L9.67865 4.97165ZM7.40453 6.2844L11.2906 8.52816L9.67878 9.45875L5.79256 7.215L7.40453 6.2844ZM5.32362 8.02681L9.2099 10.2706V14.7578L5.32362 12.5144V8.02681ZM7.84315 10.1193L6.77369 9.50194C6.72034 9.47007 6.66119 9.44914 6.59967 9.44034C6.53816 9.43155 6.47551 9.43507 6.41537 9.45071C6.35524 9.46634 6.29881 9.49378 6.24937 9.53142C6.19993 9.56906 6.15847 9.61616 6.12739 9.66997C6.09632 9.72378 6.07626 9.78324 6.06837 9.84487C6.06048 9.90651 6.06493 9.9691 6.08145 10.029C6.09797 10.0889 6.12624 10.1449 6.1646 10.1938C6.20297 10.2427 6.25067 10.2834 6.30494 10.3137L7.3744 10.9313C7.42775 10.9631 7.4869 10.9841 7.54842 10.9929C7.60993 11.0017 7.67258 10.9981 7.73271 10.9825C7.79285 10.9669 7.84928 10.9394 7.89872 10.9018C7.94816 10.8642 7.98962 10.8171 8.0207 10.7632C8.05177 10.7094 8.07183 10.65 8.07972 10.5883C8.08761 10.5267 8.08316 10.4641 8.06664 10.4042C8.05012 10.3443 8.02185 10.2883 7.98349 10.2394C7.94512 10.1905 7.89742 10.1496 7.84315 10.1193ZM16.9516 14.5432C16.9296 14.4354 16.8718 14.3382 16.7877 14.2674C16.7036 14.1965 16.598 14.1562 16.488 14.1528L14.7038 14.1583C14.6423 14.1584 14.5813 14.1706 14.5245 14.1943C14.4676 14.2179 14.416 14.2525 14.3726 14.2961C14.2848 14.3841 14.2356 14.5034 14.2357 14.6277C14.2359 14.7521 14.2855 14.8712 14.3735 14.959C14.4616 15.0468 14.5809 15.096 14.7052 15.0958H14.7066L15.5027 15.0934C14.2349 16.4626 12.5022 17.3099 10.6431 17.47C8.78394 17.63 6.9319 17.0912 5.44874 15.9589C3.96557 14.8265 2.95781 13.1819 2.62231 11.3463C2.28681 9.51068 2.64766 7.61592 3.63437 6.03212C3.667 5.97992 3.68902 5.92181 3.69919 5.8611C3.70935 5.80038 3.70746 5.73826 3.69362 5.67828C3.67978 5.6183 3.65426 5.56163 3.61852 5.51152C3.58277 5.4614 3.53751 5.41881 3.48531 5.38619C3.43311 5.35356 3.37499 5.33154 3.31428 5.32137C3.25357 5.31121 3.19145 5.3131 3.13147 5.32694C3.07149 5.34078 3.01482 5.3663 2.9647 5.40204C2.91459 5.43778 2.872 5.48305 2.83937 5.53525C1.72748 7.31795 1.32073 9.45137 1.69872 11.5181C2.0767 13.5849 3.21221 15.4362 4.88309 16.71C6.55397 17.9838 8.63999 18.5883 10.733 18.4053C12.8261 18.2222 14.7755 17.2649 16.2 15.7205L16.3294 16.4847C16.3479 16.5938 16.4044 16.6928 16.4889 16.7642C16.5734 16.8357 16.6804 16.8749 16.7911 16.875C16.8175 16.8751 16.8439 16.8728 16.87 16.8683C16.9307 16.858 16.9887 16.8359 17.0409 16.8032C17.093 16.7705 17.1382 16.7278 17.1739 16.6776C17.2095 16.6274 17.2349 16.5707 17.2487 16.5107C17.2624 16.4507 17.2642 16.3885 17.2539 16.3278L16.9516 14.5432ZM10 1.56253C8.11806 1.55753 6.28938 2.18711 4.80937 3.34956L4.81144 2.60472C4.8116 2.54315 4.79962 2.48215 4.77621 2.42521C4.75279 2.36826 4.71838 2.31649 4.67495 2.27285C4.63152 2.22921 4.57991 2.19455 4.52309 2.17085C4.46626 2.14716 4.40532 2.13489 4.34375 2.13475H4.34253C4.21843 2.13475 4.09939 2.18396 4.01151 2.2716C3.92364 2.35924 3.87411 2.47814 3.87378 2.60225L3.8689 4.38694C3.87099 4.49931 3.91238 4.6074 3.98589 4.69242C4.0594 4.77745 4.16038 4.83402 4.27128 4.85231L6.05547 5.10747C6.07767 5.11048 6.10006 5.112 6.12247 5.11203C6.24116 5.11213 6.35547 5.06719 6.44233 4.9863C6.52918 4.9054 6.58212 4.79457 6.59045 4.67617C6.59877 4.55777 6.56188 4.44062 6.4872 4.34836C6.41252 4.2561 6.30563 4.19561 6.18809 4.17909L5.41169 4.06825C6.72804 3.05132 8.34504 2.50073 10.0085 2.50306C11.6719 2.5054 13.2873 3.06052 14.6008 4.08114C15.9143 5.10176 16.8513 6.52999 17.2645 8.14126C17.6778 9.75252 17.5437 11.4554 16.8836 12.9822C16.8579 13.0389 16.8437 13.1001 16.8419 13.1623C16.8401 13.2245 16.8507 13.2864 16.873 13.3445C16.8954 13.4025 16.9291 13.4555 16.9722 13.5004C17.0153 13.5453 17.0669 13.5812 17.124 13.6059C17.181 13.6307 17.2425 13.6438 17.3047 13.6446C17.3669 13.6454 17.4286 13.6337 17.4863 13.6104C17.544 13.587 17.5964 13.5524 17.6406 13.5086C17.6848 13.4648 17.7198 13.4126 17.7436 13.3551C18.2989 12.0711 18.5264 10.6693 18.4057 9.27555C18.285 7.88183 17.8198 6.53996 17.0519 5.37059C16.2841 4.20122 15.2376 3.24102 14.0067 2.57631C12.7758 1.91161 11.3989 1.56324 10 1.56253Z" fill="#E8820A"/>
</svg>
